#!OML:ASF I:\Actors\actors\Patient Classification 2\Patient 1\Session 1\actor1.ASF
:FULLY-SPECIFIED
:DEGREES
547
root -1.08254 18.961 5.46999 22.2753 6.89765 -3.97961
lowerback 23.5344 2.57523 10.0428
upperback 2.95719 6.50513 5.8481
thorax -9.43735 2.7904 -1.18593
lowerneck -1.28902 -8.07498 -9.49491
upperneck 0.519489 -10.5619 -3.15487
head 0.696166 -5.31066 0.429481
rclavicle -9.54166e-015 2.06736e-014
rhumerus 6.72205 5.16052 -53.474
rradius 50.1029
rwrist 23.3021
rhand -8.32527 -43.3459
rfingers 7.12502
rthumb 17.5958 -72.5697
lclavicle -9.54166e-015 2.06736e-014
lhumerus 19.1796 -44.9587 41.7566
lradius 108.245
lwrist 21.8198
lhand -7.48978 -10.3421
lfingers 7.12502
lthumb 18.3997 18.8077
rfemur -16.7741 -5.95694 22.3675
rtibia -5.48646e-014
rfoot -14.9212 -14.1767
rtoes -1.69685
lfemur -37.8797 -1.821 -6.63949
ltibia 31.3965
lfoot -12.1542 7.47176
ltoes -57.6647
548
root -1.06684 18.9589 5.46939 22.2806 6.97586 -4.00812
lowerback 23.5555 2.67228 9.98475
upperback 3.01092 6.60329 5.77249
thorax -9.37588 2.84114 -1.26602
lowerneck -1.42908 -8.16769 -9.63152
upperneck 0.475657 -10.6707 -2.74158
head 0.742688 -5.36399 0.56901
rclavicle -3.49861e-014 -4.92986e-014
rhumerus 5.83038 4.98204 -53.4731
rradius 50.44
rwrist 22.7536
rhand -8.29438 -43.5757
rfingers 7.12502
rthumb 17.6256 -72.7968
lclavicle -3.49861e-014 -4.92986e-014
lhumerus 20.8366 -44.4495 40.7544
lradius 108.057
lwrist 21.6165
lhand -6.88126 -10.012
lfingers 7.12502
lthumb 18.985 19.0814
rfemur -16.7717 -6.03288 22.3724
rtibia 1.74931e-014
rfoot -14.9432 -14.1527
rtoes -1.53293
lfemur -37.9972 -1.87607 -6.637
ltibia 31.5566
lfoot -12.2191 7.43174
ltoes -57.5634
549
root -1.05057 18.9563 5.46838 22.2534 7.09652 -4.06429
lowerback 23.58 2.73912 9.93245
upperback 3.0879 6.66632 5.73787
thorax -9.29751 2.87756 -1.2934
lowerneck -1.54642 -8.25043 -9.72597
upperneck 0.432967 -10.7692 -2.42821
head 0.777487 -5.412 0.67298
rclavicle -7.4743e-014 -3.33958e-014
rhumerus 4.97268 4.73424 -53.5257
rradius 50.8177
rwrist 22.3288
rhand -8.15764 -43.8404
rfingers 7.12502
rthumb 17.7572 -73.0497
lclavicle -7.4743e-014 -3.33958e-014
lhumerus 22.3006 -43.8646 39.9494
lradius 107.856
lwrist 21.4398
lhand -6.16517 -9.77034
lfingers 7.12502
lthumb 19.6736 19.2541
rfemur -16.7359 -6.13935 22.4144
rtibia 2.14687e-014
rfoot -14.923 -14.1381
rtoes -1.61472
lfemur -38.0929 -1.88638 -6.62468
ltibia 31.6966
lfoot -12.1561 7.37629
ltoes -57.5038
550
root -1.02939 18.9533 5.4672 22.2776 7.39383 -4.06838
lowerback 23.4918 2.71048 9.98666
upperback 3.13984 6.61875 5.68498
thorax -9.18178 2.86044 -1.36064
lowerneck -1.44266 -8.33224 -9.77198
upperneck 0.185295 -10.9051 -2.06131
head 0.712536 -5.46873 0.800328
rclavicle -2.54444e-014 3.18055e-015
rhumerus 4.03998 4.48746 -53.6843
rradius 51.276
rwrist 21.9861
rhand -8.15667 -44.0006
rfingers 7.12502
rthumb 17.7581 -73.2097
lclavicle -2.54444e-014 3.18055e-015
lhumerus 23.7088 -43.3477 39.1662
lradius 107.682
lwrist 21.564
lhand -5.77435 -9.45333
lfingers 7.12502
lthumb 20.0493 19.5323
rfemur -16.74 -6.43367 22.4617
rtibia -2.78299e-014
rfoot -14.8922 -14.1177
rtoes -1.70986
lfemur -38.2827 -2.06939 -6.61359
ltibia 31.8212
lfoot -12.0281 7.34877
ltoes -57.5416
551
root -1.00846 18.9516 5.46558 22.3288 7.68483 -4.0733
lowerback 23.3998 2.69404 10.0689
upperback 3.17453 6.59307 5.61194
thorax -9.07616 2.85133 -1.47176
lowerneck -1.338 -8.44545 -9.84043
upperneck -0.0686588 -11.0816 -1.65621
head 0.651529 -5.54617 0.942575
rclavicle -1.59028e-015 -1.43125e-014
rhumerus 2.95616 4.23876 -53.8626
rradius 51.8485
rwrist 21.5721
rhand -8.20944 -44.0814
rfingers 7.12502
rthumb 17.7073 -73.2952
lclavicle -1.59028e-015 -1.43125e-014
lhumerus 25.177 -42.9151 38.3016
lradius 107.53
lwrist 21.8715
lhand -5.40737 -9.20053
lfingers 7.12502
lthumb 20.402 19.7477
rfemur -16.7746 -6.72042 22.5114
rtibia -5.08889e-014
rfoot -14.9158 -14.0921
rtoes -1.47204
lfemur -38.4895 -2.35491 -6.55406
ltibia 31.9333
lfoot -11.9989 7.40945
ltoes -57.5562
